<svg xmlns="http://www.w3.org/2000/svg" viewBox="0 0 77 64.18"><defs><style>.cls-1{fill:#0a9b36;}</style></defs><title>logo</title><g id="Capa_2" data-name="Capa 2"><g id="Capa_1-2" data-name="Capa 1"><path class="cls-1" d="M38.52,13.69A25.25,25.25,0,1,1,13.24,38.81,25.28,25.28,0,0,1,38.52,13.69Zm13,16.58a2.56,2.56,0,0,0-1.88,1L30.8,50a4.42,4.42,0,0,0-.52.54,2.22,2.22,0,0,0,1.07,3.49,2.33,2.33,0,0,0,2.56-.78L52.82,34.37a4.24,4.24,0,0,0,.46-.49,2.21,2.21,0,0,0,.21-2.41A2.12,2.12,0,0,0,51.48,30.27Zm-26,17.33a2.53,2.53,0,0,0,1.89-.93L46.21,27.8a4.43,4.43,0,0,0,.51-.55,2.24,2.24,0,0,0-1.28-3.51,2.38,2.38,0,0,0-2.35.81l-19,19a3.35,3.35,0,0,0-.41.44,2.18,2.18,0,0,0-.25,2.4A2.15,2.15,0,0,0,25.46,47.6Zm12-24.92A2.56,2.56,0,0,0,36,20.52a2.25,2.25,0,0,0-2.61.58Q27,27.46,20.63,33.85a2.25,2.25,0,1,0,3.14,3.21q6.45-6.41,12.85-12.86A6.78,6.78,0,0,0,37.47,22.68Zm4.81,34.86a6.39,6.39,0,0,0,1.42-.9c4.19-4.13,8.34-8.31,12.5-12.47a4.23,4.23,0,0,0,.45-.5,2.24,2.24,0,0,0-1.49-3.56A2.42,2.42,0,0,0,53,41L40.55,53.45a3.35,3.35,0,0,0-.5.57,2.18,2.18,0,0,0-.13,2.34A2.37,2.37,0,0,0,42.28,57.54Z"/><path class="cls-1" d="M9,43.36a9.14,9.14,0,0,1-5.47-2.11,9.5,9.5,0,0,1-.3-14.56,1,1,0,0,0,.38-1C3.08,20.9,5.22,17.25,9.7,15.3a1,1,0,0,0,.51-.62,9.63,9.63,0,0,1,9.23-7.82,1.14,1.14,0,0,0,.81-.46A9.56,9.56,0,0,1,31.62,2.32a1,1,0,0,0,.79-.14,9.56,9.56,0,0,1,12.14,0,1.11,1.11,0,0,0,.85.13A9.59,9.59,0,0,1,56.72,6.38a1.15,1.15,0,0,0,.8.48,9.62,9.62,0,0,1,9.25,7.8,1.06,1.06,0,0,0,.56.65,9.49,9.49,0,0,1,6,10.25,1.28,1.28,0,0,0,.46,1.22,9.11,9.11,0,0,1,2.67,9.92,9.27,9.27,0,0,1-8,6.63,3.36,3.36,0,0,1-.55,0c1.17-10.38-1.82-19.28-9.52-26.4A28.33,28.33,0,0,0,38.35,9.21,28.79,28.79,0,0,0,15.91,19.62C10.06,26.43,7.92,34.42,9,43.36Z"/></g></g></svg>